<?xml version="1.0" standalone="no"?>
<!DOCTYPE svg PUBLIC "-//W3C//DTD SVG 20010904//EN"
 "http://www.w3.org/TR/2001/REC-SVG-20010904/DTD/svg10.dtd">
<svg version="1.0" xmlns="http://www.w3.org/2000/svg"
 width="19.000000pt" height="19.000000pt" viewBox="0 0 502.000000 497.000000"
 preserveAspectRatio="xMidYMid meet">

<g transform="translate(0.000000,497.000000) scale(0.100000,-0.100000)"
fill="#000000" stroke="none">
<path d="M2493 4641 c-61 -38 -113 -146 -168 -348 -44 -161 -97 -429 -130
-658 -28 -200 -50 -286 -100 -390 -37 -78 -60 -109 -296 -410 -160 -203 -433
-552 -899 -1145 -123 -157 -261 -332 -307 -390 -46 -58 -98 -134 -116 -170
l-32 -65 -3 -273 c-2 -151 -1 -285 2 -298 7 -27 40 -33 50 -8 3 9 6 53 6 98
l0 83 139 7 c76 4 327 6 556 6 293 -1 421 2 428 9 9 9 8 17 -1 31 -11 19 -9
20 35 21 58 1 366 1 374 0 3 -1 4 -14 1 -31 -4 -25 0 -30 24 -36 33 -8 64 -31
64 -48 0 -6 25 -62 55 -124 98 -198 199 -274 367 -275 66 -1 85 4 142 32 87
43 153 117 212 241 25 52 53 111 62 129 12 25 27 37 49 43 17 4 377 7 800 6
l768 -3 5 -100 c5 -92 7 -100 25 -100 20 0 20 7 20 296 l0 295 -35 70 c-31 60
-532 707 -1340 1729 -69 88 -152 194 -182 235 -103 138 -155 268 -178 450 -22
169 -71 448 -106 600 -92 398 -186 556 -291 491z m113 -133 c58 -115 113 -318
168 -625 56 -306 65 -387 88 -778 18 -314 21 -495 25 -1416 l4 -1056 -31 -69
c-90 -198 -180 -274 -328 -274 -131 0 -214 66 -302 243 l-50 99 0 946 c0 695
4 1024 15 1237 22 438 34 616 45 697 83 584 174 949 265 1056 l28 33 24 -23
c14 -13 36 -44 49 -70z"/>
<path d="M2515 4092 c-82 -3 -104 -10 -105 -34 0 -4 7 -14 16 -22 12 -12 37
-16 107 -16 102 0 120 7 115 40 -4 30 -26 36 -133 32z"/>
</g>
</svg>
