<svg width="48" height="48" viewBox="0 0 48 48" xmlns="http://www.w3.org/2000/svg" role="img" aria-hidden="true" focusable="false">
  <g fill="none" fill-rule="evenodd">
    <path d="M23.45 4h1.1l2.1 13.8H34c.55 0 1 .45 1 1 0 .2-.06.39-.17.56l-4.46 6.54c-.19.28-.5.45-.83.45h-4.31l2.55 16.65c.09.57-.31 1.1-.88 1.19-.05.01-.11.01-.16.01h-6.04c-.58 0-1.05-.47-1.05-1.05 0-.05 0-.1.01-.16L21.7 26.35h-4.31c-.33 0-.64-.17-.83-.45l-4.46-6.54A.997.997 0 0 1 12 18.8c0-.55.45-1 1-1h7.35L22.45 4Z" fill="#3F4A4A"/>
    <path d="m21.3 26.35 1.75 11.45h1.9l1.75-11.45h-5.4Z" fill="#5C6666"/>
    <path d="M18.3 18.8h11.4l2.67-3.93H15.63L18.3 18.8Z" fill="#5C6666"/>
    <path d="M22.76 4h2.48l.64 4.2h-3.76L22.76 4Z" fill="#5C6666"/>
  </g>
</svg>
